<svg xmlns="http://www.w3.org/2000/svg" viewBox="0 0 9.6446 13.161">
  <path fill="#4d4d4d" d="M9.645 13.161h-.35002c-.42003 0-.70004 0-.98006-.07-.28002-.07-.56004-.28002-.77005-.56004-.21001-.28002-.28002-.56003-.35002-.91006-.07-.35002-.07-.98006-.07-1.8201 0-.63004 0-1.0501-.07-1.4001C6.98484 8.05068 6.7112 7.4 6.50119 7.19c-.21001-.21-3.54-.09456-3.96-.09456l.0098-.97462c.42003 0 3.7068.16067 3.9168-.04934.21001-.21001.51706-.96094.58707-1.311.07-.35002.07-.77005.07-1.4001 0-.84005 0-1.4701.07-1.8201.07001-.35002.14001-.63004.35002-.91006.21001-.28002.49003-.49003.77005-.56004.28002-.07.56003-.07.98006-.07h.35002v1.0501H9.435c-.49003 0-.77005.07-.91006.21001-.21001.21001-.28002.28002-.28002.49003v1.7501c0 .7828-.12966 1.2596-.22044 1.7203-.10371.52633-.39618.93726-.74533 1.3599.36097.33994.44488.4286.71395 1.0849.17815.4345.25182.94527.25182 1.9953v1.7501c0 .21001.07001.28002.28002.49003.14001.14001.42003.21001.91006.21001h.21001z"/>
  <circle cx="1.4529997" cy="6.6060004" r="1.1906" fill="none" stroke="#4d4d4d" stroke-width=".52414"/>
</svg>
