<svg xmlns="http://www.w3.org/2000/svg" viewBox="0 0 14.391 13.161">
  <path fill="#4d4d4d" d="M0 13.161h.35002c.42003 0 .70004 0 .98006-.07.28002-.07.56004-.28002.77005-.56004.21001-.28002.28002-.56003.35002-.91006.07-.35002.07-.98006.07-1.8201 0-.63004 0-1.0501.07-1.4001.07001-.35002.34365-1.0007.55366-1.2107.21001-.21 3.54-.09456 3.96-.09456l-.0098-.97462c-.42003 0-3.7068.16067-3.9168-.04934-.21001-.21001-.51706-.96094-.58707-1.311-.07-.35002-.07-.77005-.07-1.4001 0-.84005 0-1.4701-.07-1.8201-.07001-.35002-.14001-.63004-.35002-.91006C1.89011.3502 1.61009.14019 1.33007.07018c-.28002-.07-.56003-.07-.98006-.07h-.35002v1.0501H.21c.49003 0 .77005.07.91006.21001.21001.21001.28002.28002.28002.49003v1.7501c0 .7828.12966 1.2596.22044 1.7203.10371.52633.39618.93726.74533 1.3599-.36097.33994-.44488.4286-.71395 1.0849-.17815.4345-.25182.94527-.25182 1.9953v1.7501c0 .21001-.07001.28002-.28002.49003-.14001.14001-.42003.21001-.91006.21001h-.21001Zm14.39098-.00021h-.35002c-.42003 0-.70004 0-.98006-.07-.28002-.07-.56004-.28002-.77005-.56004-.21001-.28002-.28002-.56003-.35002-.91006-.07-.35002-.07-.98006-.07-1.8201 0-.63004 0-1.0501-.07-1.4001-.07001-.35002-.34365-1.0007-.55366-1.2107-.21001-.21-.49033-.40757-.49033-.40757l.0039-.3486.5121-.32692c.24532-.15661.458-.99637.52801-1.3464.07-.35002.07-.77005.07-1.4001 0-.84005 0-1.4701.07-1.8201.07001-.35002.14001-.63004.35002-.91006.21001-.28002.49003-.49003.77005-.56004.28002-.07.56003-.07.98006-.07h.35002v1.0501h-.21001c-.49003 0-.77005.07-.91006.21001-.21001.21001-.28002.28002-.28002.49003v1.7501c0 .7828-.12966 1.2596-.22044 1.7203-.10371.52633-.39618.93726-.74533 1.3599.36097.33994.44488.4286.71395 1.0849.17815.4345.25182.94527.25182 1.9953v1.7501c0 .21001.07001.28002.28002.49003.14001.14001.42003.21001.91006.21001h.21001Z"/>
  <path fill="#4d4d4d" d="M11.24168787 6.59216881 8.67017934 7.69307808 6.5284889 8.85557213l.1207991-2.37305548-.15927744-2.09920699L8.94072 5.65545583Z"/>
</svg>
