<svg xmlns="http://www.w3.org/2000/svg" viewBox="0 0 4.3499999 13.161">
  <path fill="#4d4d4d" d="M0 2.6728401c.0422385.31452.09666118.72118.15974817 1.193-.0189532.83532-.0414262 1.7701-.0644408 2.7661-.0108304.892-.0216608 1.8319-.0319496 2.8001V10.66288H1.6453791l-.00542-.1692c-.021661-.6194099-.043051-1.2333999-.063899-1.8307999 0-.98652-.0000271-1.9462-.0000542-2.8563.046029-1.1163.08908-2.1665.1280693-3.1158l.00542-.15656-.4226016-.01248c-.3162202-.0093-.5887668-.0174-.79958024-.02362zm.41567017.15826c.10965764.0032.23637314.007.37697861.01114-.0373648.90772-.0782495 1.904-.12157107 2.9617 0 .91262.00002708 1.8723.00005416 2.861.0189532.54515.0384479 1.1018.0579425 1.6637999H.9678844v-.8960099c.01083-.96754.021661-1.9074.03195-2.7987.021661-.99525.044405-1.9301.063899-2.775-.063629-.48148-.1180513-.88814-.16028978-1.2027zM4.3499999 10.48816c-.042239-.31452-.096661-.7211798-.1597482-1.1929998.018953-.83532.041426-1.7701.064441-2.7661.01083-.892.021661-1.8319.03195-2.8001v-1.23084H2.7046214l.00542.1692c.021661.61941.043051 1.2334.063899 1.8308 0 .98652.0000271 1.9462.0000542 2.8563-.046029 1.1163-.08908 2.1665-.1280693 3.1157998l-.00542.15656.4226016.01248c.3162198.0093.5887664.0174.7995798.02362zm-.4156702-.15826c-.1096576-.0032-.2363731-.007-.3769786-.01114.037365-.9077198.07825-1.9039998.1215711-2.9616998 0-.91262-.0000271-1.8723-.0000542-2.861-.018953-.54515-.038448-1.1018-.057942-1.6638h-.23881v.89601c-.01083.96754-.021661 1.9074-.03195 2.7987-.021661.99525-.044405 1.9301-.063899 2.775.063629.48148.1180513.8881398.1602898 1.2026998z"/>
</svg>
