<svg xmlns="http://www.w3.org/2000/svg" viewBox="0 0 5.5448 13.161">
  <path fill="#4d4d4d" d="M0 13.161h.35002c.42003 0 .70004 0 .98006-.07.28002-.07.56004-.28002.77005-.56004.21001-.28002.28002-.56003.35002-.91006.07-.35002.07-.98006.07-1.8201 0-.63004 0-1.0501.07-1.4001.07001-.35002.34365-1.0007.55366-1.2107.15884-.15884.88569-.16836 1.5627-.15387.055.0012.2720684.065901.2720684.065901.2077077.287291-.3173926 1.3255747-.09928 1.6783002 0 0 .4404933 1.1841427.6876665 1.1763026L5.5601725 2.857773c-.3785857.1196675-.7209828 1.277871-.7209828 1.277871-.2323228.4710205.3945711 1.6825313.1942191 1.959575 0 0-.2565188.109091-.3812988.110921-.12478.0018-.2534.0028-.38038.0021-.5079-.0028-.98955-.03183-1.0946-.13683-.21002-.21001-.51706-.96094-.58707-1.311-.07-.35002-.07-.77005-.07-1.4001 0-.84005 0-1.4701-.07-1.8201-.07001-.35002-.14001-.63004-.35002-.91006-.21001-.28002-.49003-.49003-.77005-.56004-.28002-.07-.56003-.07-.98006-.07h-.35002v1.0501h.21001c.49003 0 .77005.07.91006.21001.21001.21001.28002.28002.28002.49003v1.7501c0 .7828.12966 1.2596.22044 1.7203.10371.52633.39618.93726.74533 1.3599-.36097.33994-.44488.4286-.71395 1.0849-.17815.4345-.25182.94527-.25182 1.9953v1.7501c0 .21001-.07001.28002-.28002.49003-.14001.14001-.42003.21001-.91006.21001h-.21001Z"/>
</svg>
