<?xml version="1.0" encoding="UTF-8" standalone="no"?>
<svg
   xmlns:dc="http://purl.org/dc/elements/1.1/"
   xmlns:cc="http://creativecommons.org/ns#"
   xmlns:rdf="http://www.w3.org/1999/02/22-rdf-syntax-ns#"
   xmlns:svg="http://www.w3.org/2000/svg"
   xmlns="http://www.w3.org/2000/svg"
   xmlns:sodipodi="http://sodipodi.sourceforge.net/DTD/sodipodi-0.dtd"
   xmlns:inkscape="http://www.inkscape.org/namespaces/inkscape"
   fill="none"
   version="1.0"
   viewBox="0 0 720.12788 177.45845"
   id="svg861"
   sodipodi:docname="mark-large.svg"
   inkscape:version="1.0.2-2 (e86c870879, 2021-01-15)">
  <metadata
     id="metadata867">
    <rdf:RDF>
      <cc:Work
         rdf:about="">
        <dc:format>image/svg+xml</dc:format>
        <dc:type
           rdf:resource="http://purl.org/dc/dcmitype/StillImage" />
      </cc:Work>
    </rdf:RDF>
  </metadata>
  <defs
     id="defs865" />
  <sodipodi:namedview
     pagecolor="#ffffff"
     bordercolor="#666666"
     borderopacity="1"
     objecttolerance="10"
     gridtolerance="10"
     guidetolerance="10"
     inkscape:pageopacity="0"
     inkscape:pageshadow="2"
     inkscape:window-width="2560"
     inkscape:window-height="1377"
     id="namedview863"
     showgrid="false"
     inkscape:zoom="1.4469652"
     inkscape:cx="360.06393"
     inkscape:cy="88.729225"
     inkscape:window-x="-8"
     inkscape:window-y="-8"
     inkscape:window-maximized="1"
     inkscape:current-layer="svg861" />
  <path
     fill="#c0651f"
     d="M64.819314 50.500329c-23.399995 27.8-42.599995 51.100001-42.799995 51.600001-.2.7 77.599995 13.8 78.299991 13.1.2-.2 7.3-115.10000087 7.1-115.20000087-.1-.1-19.299996 22.59999987-42.599996 50.49999987Z"
     id="path847"
     style="fill:#cc7d24;fill-opacity:1" />
  <path
     fill="#c0651f"
     d="M129.01931 24.000329c-6.1 5-11.4 9.5-11.6 10.1-.2.5-2.8 20.1-5.7 43.5-2.9 23.400001-5.6 42.800001-5.9 43.200001-.4.4-18.299996-1.9-39.999996-5.2-21.599995-3.3-39.799995-5.7-40.499995-5.3-3.9 2.3-20.5000005 16.8-19.4000005 17.1 4.6000005.9 100.3999915 12.9 100.6999915 12.6.6-.6 34.1-123.800001 33.9-124.500001-.2-.4-5.3 3.5-11.5 8.5z"
     id="path849" />
  <path
     fill="#a40"
     d="m153.21931 66.000329-17 9.3-12 35.300001c-6.6 19.5-12.5 35.5-13.1 35.7-.6.2-19.399996-1.9-41.799996-4.7-22.399995-2.7-41.999995-5-43.499995-5-2.3 0-26.60000046 11.9-25.80000046 12.6.6.6 98.49999546 27.4 99.89999546 27.4.699996-.1 11.899996-18.1 24.799996-40.2 12.9-22 28.8-49.000001 35.2-59.900001 6.4-11 11.4-19.9 11-19.8-.4 0-8.3 4.2-17.7 9.3z"
     id="path851" />
  <text
     xml:space="preserve"
     x="172.83333"
     y="144.65845"
     fill="#000"
     font-family="sans-serif"
     font-size="160"
     font-weight="400"
     letter-spacing="0"
     style="line-height:125%"
     word-spacing="0"
     id="text855"><tspan
       x="172.83333"
       y="144.65845"
       fill="#666"
       font-family="PT Sans Narrow"
       style="-inkscape-font-specification:&quot;PT Sans Narrow&quot;"
       id="tspan853">Whyqd</tspan></text>
  <text
     xml:space="preserve"
     x="550.56"
     y="84.92514"
     fill="#000"
     font-family="sans-serif"
     font-size="74.6667"
     font-weight="400"
     letter-spacing="0"
     style="line-height:125%"
     word-spacing="0"
     id="text859"><tspan
       x="550.56"
       y="84.92514"
       fill="gray"
       font-family="PT Sans"
       font-style="italic"
       style="-inkscape-font-specification:&quot;PT Sans Italic&quot;"
       id="tspan857">alpha</tspan></text>
</svg>
