<svg xmlns="http://www.w3.org/2000/svg" fill="none" version="1.0" viewBox="0 0 170.94174 176.60033">
  <path fill="#c0651f" d="M64.819314 50.500329c-23.399995 27.8-42.599995 51.100001-42.799995 51.600001-.2.7 77.599995 13.8 78.299991 13.1.2-.2 7.3-115.10000087 7.1-115.20000087-.1-.1-19.299996 22.59999987-42.599996 50.49999987Z"/>
  <path fill="#c0651f" d="M129.01931 24.000329c-6.1 5-11.4 9.5-11.6 10.1-.2.5-2.8 20.1-5.7 43.5-2.9 23.400001-5.6 42.800001-5.9 43.200001-.4.4-18.299996-1.9-39.999996-5.2-21.599995-3.3-39.799995-5.7-40.499995-5.3-3.9 2.3-20.5000005 16.8-19.4000005 17.1 4.6000005.9 100.3999915 12.9 100.6999915 12.6.6-.6 34.1-123.800001 33.9-124.500001-.2-.4-5.3 3.5-11.5 8.5z"/>
  <path fill="#a40" d="m153.21931 66.000329-17 9.3-12 35.300001c-6.6 19.5-12.5 35.5-13.1 35.7-.6.2-19.399996-1.9-41.799996-4.7-22.399995-2.7-41.999995-5-43.499995-5-2.3 0-26.60000046 11.9-25.80000046 12.6.6.6 98.49999546 27.4 99.89999546 27.4.699996-.1 11.899996-18.1 24.799996-40.2 12.9-22 28.8-49.000001 35.2-59.900001 6.4-11 11.4-19.9 11-19.8-.4 0-8.3 4.2-17.7 9.3z"/>
</svg>
