<svg xmlns="http://www.w3.org/2000/svg" fill="none" version="1.0" viewBox="0 0 170.942 176.6"><path fill="#c0651f" d="M64.82 50.5c-23.4 27.8-42.6 51.1-42.8 51.6-.2.7 77.6 13.8 78.3 13.1.2-.2 7.3-115.1 7.1-115.2-.1-.1-19.3 22.6-42.6 50.5Z" style="fill:#cc7d24;fill-opacity:1"/><path fill="#c0651f" d="M129.02 24c-6.1 5-11.4 9.5-11.6 10.1-.2.5-2.8 20.1-5.7 43.5-2.9 23.4-5.6 42.8-5.9 43.2-.4.4-18.3-1.9-40-5.2-21.6-3.3-39.8-5.7-40.5-5.3-3.9 2.3-20.5 16.8-19.4 17.1 4.6.9 100.4 12.9 100.7 12.6.6-.6 34.1-123.8 33.9-124.5-.2-.4-5.3 3.5-11.5 8.5z" style="fill:#c0651f;fill-opacity:1"/><path fill="#a40" d="m153.22 66-17 9.3-12 35.3c-6.6 19.5-12.5 35.5-13.1 35.7-.6.2-19.4-1.9-41.8-4.7-22.4-2.7-42-5-43.5-5-2.3 0-26.6 11.9-25.8 12.6.6.6 98.5 27.4 99.9 27.4.7-.1 11.9-18.1 24.8-40.2 12.9-22 28.8-49 35.2-59.9 6.4-11 11.4-19.9 11-19.8-.4 0-8.3 4.2-17.7 9.3z"/></svg>